<mxfile host="app.diagrams.net" agent="Mozilla/5.0 (Windows NT 10.0; Win64; x64) AppleWebKit/537.36 (KHTML, like Gecko) Chrome/131.0.0.0 Safari/537.36" version="24.8.6">
  <diagram name="Сторінка-1" id="Gtro21rbZBttLSfvD_Jd">
    <mxGraphModel dx="1050" dy="530" grid="1" gridSize="10" guides="1" tooltips="1" connect="1" arrows="1" fold="1" page="1" pageScale="1" pageWidth="827" pageHeight="1169" math="0" shadow="0">
      <root>
        <mxCell id="0" />
        <mxCell id="1" parent="0" />
        <mxCell id="WX6OIhMtTNk918Bb48-7-1" value="&lt;font style=&quot;font-size: 14px;&quot;&gt;End&lt;/font&gt;" style="ellipse;whiteSpace=wrap;html=1;" vertex="1" parent="1">
          <mxGeometry x="354" y="730" width="120" height="50" as="geometry" />
        </mxCell>
        <mxCell id="WX6OIhMtTNk918Bb48-7-2" style="edgeStyle=orthogonalEdgeStyle;rounded=0;orthogonalLoop=1;jettySize=auto;html=1;exitX=0.5;exitY=1;exitDx=0;exitDy=0;entryX=0.5;entryY=0;entryDx=0;entryDy=0;" edge="1" parent="1" source="WX6OIhMtTNk918Bb48-7-3" target="WX6OIhMtTNk918Bb48-7-5">
          <mxGeometry relative="1" as="geometry">
            <mxPoint x="414" y="130" as="targetPoint" />
          </mxGeometry>
        </mxCell>
        <mxCell id="WX6OIhMtTNk918Bb48-7-3" value="&lt;font style=&quot;font-size: 14px;&quot;&gt;Start&lt;/font&gt;" style="ellipse;whiteSpace=wrap;html=1;" vertex="1" parent="1">
          <mxGeometry x="354" y="40" width="120" height="50" as="geometry" />
        </mxCell>
        <mxCell id="WX6OIhMtTNk918Bb48-7-4" style="edgeStyle=orthogonalEdgeStyle;rounded=0;orthogonalLoop=1;jettySize=auto;html=1;exitX=0.5;exitY=1;exitDx=0;exitDy=0;entryX=0.5;entryY=0;entryDx=0;entryDy=0;" edge="1" parent="1" source="WX6OIhMtTNk918Bb48-7-5" target="WX6OIhMtTNk918Bb48-7-7">
          <mxGeometry relative="1" as="geometry" />
        </mxCell>
        <mxCell id="WX6OIhMtTNk918Bb48-7-5" value="&lt;span style=&quot;font-size: 14px;&quot;&gt;long a, b, c, r&lt;/span&gt;" style="shape=parallelogram;perimeter=parallelogramPerimeter;whiteSpace=wrap;html=1;fixedSize=1;" vertex="1" parent="1">
          <mxGeometry x="347" y="130" width="134" height="60" as="geometry" />
        </mxCell>
        <mxCell id="WX6OIhMtTNk918Bb48-7-20" style="edgeStyle=orthogonalEdgeStyle;rounded=0;orthogonalLoop=1;jettySize=auto;html=1;exitX=0.5;exitY=1;exitDx=0;exitDy=0;entryX=0.5;entryY=0;entryDx=0;entryDy=0;" edge="1" parent="1" source="WX6OIhMtTNk918Bb48-7-7" target="WX6OIhMtTNk918Bb48-7-19">
          <mxGeometry relative="1" as="geometry" />
        </mxCell>
        <mxCell id="WX6OIhMtTNk918Bb48-7-7" value="&lt;span style=&quot;font-size: 14px;&quot;&gt;input a, b, c, r&lt;/span&gt;" style="shape=parallelogram;perimeter=parallelogramPerimeter;whiteSpace=wrap;html=1;fixedSize=1;" vertex="1" parent="1">
          <mxGeometry x="354" y="250" width="120" height="60" as="geometry" />
        </mxCell>
        <mxCell id="WX6OIhMtTNk918Bb48-7-22" style="edgeStyle=orthogonalEdgeStyle;rounded=0;orthogonalLoop=1;jettySize=auto;html=1;exitX=0.5;exitY=1;exitDx=0;exitDy=0;entryX=0.5;entryY=0;entryDx=0;entryDy=0;" edge="1" parent="1" source="WX6OIhMtTNk918Bb48-7-19" target="WX6OIhMtTNk918Bb48-7-21">
          <mxGeometry relative="1" as="geometry" />
        </mxCell>
        <mxCell id="WX6OIhMtTNk918Bb48-7-19" value="&lt;font style=&quot;font-size: 14px;&quot;&gt;calculating pivperymetr(p) and Square(S)&lt;/font&gt;" style="rounded=1;whiteSpace=wrap;html=1;" vertex="1" parent="1">
          <mxGeometry x="354" y="350" width="120" height="60" as="geometry" />
        </mxCell>
        <mxCell id="WX6OIhMtTNk918Bb48-7-24" style="edgeStyle=orthogonalEdgeStyle;rounded=0;orthogonalLoop=1;jettySize=auto;html=1;exitX=1;exitY=0.5;exitDx=0;exitDy=0;entryX=0;entryY=0.5;entryDx=0;entryDy=0;" edge="1" parent="1" source="WX6OIhMtTNk918Bb48-7-21" target="WX6OIhMtTNk918Bb48-7-23">
          <mxGeometry relative="1" as="geometry" />
        </mxCell>
        <mxCell id="WX6OIhMtTNk918Bb48-7-27" value="Yes" style="edgeLabel;html=1;align=center;verticalAlign=middle;resizable=0;points=[];" vertex="1" connectable="0" parent="WX6OIhMtTNk918Bb48-7-24">
          <mxGeometry x="-0.4465" y="1" relative="1" as="geometry">
            <mxPoint as="offset" />
          </mxGeometry>
        </mxCell>
        <mxCell id="WX6OIhMtTNk918Bb48-7-26" style="edgeStyle=orthogonalEdgeStyle;rounded=0;orthogonalLoop=1;jettySize=auto;html=1;exitX=0;exitY=0.5;exitDx=0;exitDy=0;entryX=1;entryY=0.5;entryDx=0;entryDy=0;" edge="1" parent="1" source="WX6OIhMtTNk918Bb48-7-21" target="WX6OIhMtTNk918Bb48-7-25">
          <mxGeometry relative="1" as="geometry" />
        </mxCell>
        <mxCell id="WX6OIhMtTNk918Bb48-7-28" value="No" style="edgeLabel;html=1;align=center;verticalAlign=middle;resizable=0;points=[];" vertex="1" connectable="0" parent="WX6OIhMtTNk918Bb48-7-26">
          <mxGeometry x="0.0286" y="-2" relative="1" as="geometry">
            <mxPoint as="offset" />
          </mxGeometry>
        </mxCell>
        <mxCell id="WX6OIhMtTNk918Bb48-7-21" value="&lt;font style=&quot;font-size: 14px;&quot;&gt;r&amp;gt;=(a*b*c)/(4*S)&lt;/font&gt;" style="rhombus;whiteSpace=wrap;html=1;" vertex="1" parent="1">
          <mxGeometry x="364" y="440" width="100" height="100" as="geometry" />
        </mxCell>
        <mxCell id="WX6OIhMtTNk918Bb48-7-37" style="edgeStyle=orthogonalEdgeStyle;rounded=0;orthogonalLoop=1;jettySize=auto;html=1;exitX=0.5;exitY=1;exitDx=0;exitDy=0;entryX=0.5;entryY=0;entryDx=0;entryDy=0;" edge="1" parent="1" source="WX6OIhMtTNk918Bb48-7-23" target="WX6OIhMtTNk918Bb48-7-33">
          <mxGeometry relative="1" as="geometry" />
        </mxCell>
        <mxCell id="WX6OIhMtTNk918Bb48-7-23" value="&lt;font style=&quot;font-size: 14px;&quot;&gt;&quot;+&quot;&lt;/font&gt;" style="shape=parallelogram;perimeter=parallelogramPerimeter;whiteSpace=wrap;html=1;fixedSize=1;" vertex="1" parent="1">
          <mxGeometry x="540" y="460" width="120" height="60" as="geometry" />
        </mxCell>
        <mxCell id="WX6OIhMtTNk918Bb48-7-36" style="edgeStyle=orthogonalEdgeStyle;rounded=0;orthogonalLoop=1;jettySize=auto;html=1;exitX=0.5;exitY=1;exitDx=0;exitDy=0;entryX=0.5;entryY=0;entryDx=0;entryDy=0;" edge="1" parent="1" source="WX6OIhMtTNk918Bb48-7-25" target="WX6OIhMtTNk918Bb48-7-33">
          <mxGeometry relative="1" as="geometry" />
        </mxCell>
        <mxCell id="WX6OIhMtTNk918Bb48-7-25" value="&lt;font style=&quot;font-size: 14px;&quot;&gt;&quot;-&quot;&lt;/font&gt;" style="shape=parallelogram;perimeter=parallelogramPerimeter;whiteSpace=wrap;html=1;fixedSize=1;" vertex="1" parent="1">
          <mxGeometry x="170" y="460" width="120" height="60" as="geometry" />
        </mxCell>
        <mxCell id="WX6OIhMtTNk918Bb48-7-29" style="edgeStyle=orthogonalEdgeStyle;rounded=0;orthogonalLoop=1;jettySize=auto;html=1;exitX=1;exitY=0.5;exitDx=0;exitDy=0;entryX=0;entryY=0.5;entryDx=0;entryDy=0;" edge="1" parent="1" source="WX6OIhMtTNk918Bb48-7-33" target="WX6OIhMtTNk918Bb48-7-34">
          <mxGeometry relative="1" as="geometry" />
        </mxCell>
        <mxCell id="WX6OIhMtTNk918Bb48-7-30" value="Yes" style="edgeLabel;html=1;align=center;verticalAlign=middle;resizable=0;points=[];" vertex="1" connectable="0" parent="WX6OIhMtTNk918Bb48-7-29">
          <mxGeometry x="-0.4465" y="1" relative="1" as="geometry">
            <mxPoint as="offset" />
          </mxGeometry>
        </mxCell>
        <mxCell id="WX6OIhMtTNk918Bb48-7-31" style="edgeStyle=orthogonalEdgeStyle;rounded=0;orthogonalLoop=1;jettySize=auto;html=1;exitX=0;exitY=0.5;exitDx=0;exitDy=0;entryX=1;entryY=0.5;entryDx=0;entryDy=0;" edge="1" parent="1" source="WX6OIhMtTNk918Bb48-7-33" target="WX6OIhMtTNk918Bb48-7-35">
          <mxGeometry relative="1" as="geometry" />
        </mxCell>
        <mxCell id="WX6OIhMtTNk918Bb48-7-32" value="No" style="edgeLabel;html=1;align=center;verticalAlign=middle;resizable=0;points=[];" vertex="1" connectable="0" parent="WX6OIhMtTNk918Bb48-7-31">
          <mxGeometry x="0.0286" y="-2" relative="1" as="geometry">
            <mxPoint as="offset" />
          </mxGeometry>
        </mxCell>
        <mxCell id="WX6OIhMtTNk918Bb48-7-33" value="&lt;font style=&quot;font-size: 14px;&quot;&gt;(S/p)&amp;gt;=r&lt;/font&gt;" style="rhombus;whiteSpace=wrap;html=1;" vertex="1" parent="1">
          <mxGeometry x="364" y="580" width="100" height="100" as="geometry" />
        </mxCell>
        <mxCell id="WX6OIhMtTNk918Bb48-7-39" style="edgeStyle=orthogonalEdgeStyle;rounded=0;orthogonalLoop=1;jettySize=auto;html=1;exitX=0.5;exitY=1;exitDx=0;exitDy=0;entryX=0.5;entryY=0;entryDx=0;entryDy=0;" edge="1" parent="1" source="WX6OIhMtTNk918Bb48-7-34" target="WX6OIhMtTNk918Bb48-7-1">
          <mxGeometry relative="1" as="geometry" />
        </mxCell>
        <mxCell id="WX6OIhMtTNk918Bb48-7-34" value="&lt;font style=&quot;font-size: 14px;&quot;&gt;&quot;+&quot;&lt;/font&gt;" style="shape=parallelogram;perimeter=parallelogramPerimeter;whiteSpace=wrap;html=1;fixedSize=1;" vertex="1" parent="1">
          <mxGeometry x="540" y="600" width="120" height="60" as="geometry" />
        </mxCell>
        <mxCell id="WX6OIhMtTNk918Bb48-7-38" style="edgeStyle=orthogonalEdgeStyle;rounded=0;orthogonalLoop=1;jettySize=auto;html=1;exitX=0.5;exitY=1;exitDx=0;exitDy=0;entryX=0.5;entryY=0;entryDx=0;entryDy=0;" edge="1" parent="1" source="WX6OIhMtTNk918Bb48-7-35" target="WX6OIhMtTNk918Bb48-7-1">
          <mxGeometry relative="1" as="geometry" />
        </mxCell>
        <mxCell id="WX6OIhMtTNk918Bb48-7-35" value="&lt;font style=&quot;font-size: 14px;&quot;&gt;&quot;-&quot;&lt;/font&gt;" style="shape=parallelogram;perimeter=parallelogramPerimeter;whiteSpace=wrap;html=1;fixedSize=1;" vertex="1" parent="1">
          <mxGeometry x="170" y="600" width="120" height="60" as="geometry" />
        </mxCell>
      </root>
    </mxGraphModel>
  </diagram>
</mxfile>
